<svg width="800" height="800" viewBox="0 -1.5 32 32" fill="none" xmlns="http://www.w3.org/2000/svg">
  <path d="M12.861 27.943a.8.8 0 0 0 .798.857h4.682a.8.8 0 0 0 .798-.857L18.4 17.6h-4.8l-.739 10.343Z" fill="url(#a)"/>
  <path d="M28.8 0H3.2A3.2 3.2 0 0 0 0 3.2v16a3.2 3.2 0 0 0 3.2 3.2h25.6a3.2 3.2 0 0 0 3.2-3.2v-16A3.2 3.2 0 0 0 28.8 0Z" fill="url(#b)"/>
  <path d="M0 20.8A3.2 3.2 0 0 0 3.2 24h25.6a3.2 3.2 0 0 0 3.2-3.2v-3.2H0v3.2Z" fill="#D8D8D8"/>
  <path d="M17.6 20.8a1.6 1.6 0 1 0-3.2 0 1.6 1.6 0 0 0 3.2 0Z" fill="#2B2B2B"/>
  <defs>
    <radialGradient id="b" cx="0" cy="0" r="1" gradientUnits="userSpaceOnUse" gradientTransform="rotate(137.02 -5.122 14.615) scale(42.2447 63.3453)">
      <stop/>
      <stop offset="1" stop-color="#757575"/>
    </radialGradient>
    <linearGradient id="a" x1="16" y1="16.171" x2="16" y2="28.8" gradientUnits="userSpaceOnUse">
      <stop stop-color="#B8B8B8"/>
      <stop offset="1" stop-color="#C7C7C7"/>
    </linearGradient>
  </defs>
</svg>
